<?xml version="1.0" encoding="UTF-8" standalone="no" ?>
<!DOCTYPE svg PUBLIC "-//W3C//DTD SVG 1.1//EN" "http://www.w3.org/Graphics/SVG/1.1/DTD/svg11.dtd">
<svg xmlns="http://www.w3.org/2000/svg" xmlns:xlink="http://www.w3.org/1999/xlink" version="1.1" width="1280" height="1024" viewBox="0 0 1280 1024" xml:space="preserve">
<desc>Created with Fabric.js 5.3.0</desc>
<defs>
</defs>
<g transform="matrix(1 0 0 1 640 512)" id="background-logo"  >
<rect style="stroke: none; stroke-width: 0; stroke-dasharray: none; stroke-linecap: butt; stroke-dashoffset: 0; stroke-linejoin: miter; stroke-miterlimit: 4; fill: rgb(255,255,255); fill-opacity: 0; fill-rule: nonzero; opacity: 1;"  paint-order="stroke"  x="-640" y="-512" rx="0" ry="0" width="1280" height="1024" />
</g>
<g transform="matrix(1.9211538461538462 0 0 1.9211538461538462 642.8407551903019 652.1615128899797)" id="text-logo"  >
<g style=""  paint-order="stroke"   >
		<g transform="matrix(1 0 0 1 -5.684342e-14 0)" id="text-logo-path-0"  >
<path style="stroke: none; stroke-width: 0; stroke-dasharray: none; stroke-linecap: butt; stroke-dashoffset: 0; stroke-linejoin: miter; stroke-miterlimit: 4; fill: rgb(0,0,0); fill-rule: nonzero; opacity: 1;"  paint-order="stroke"  transform=" translate(-247.49499999999998, 26.474999999999998)" d="M 22.27 -21.3 L 12.3 -21.3 L 12.3 0 L 5.47 0 L 5.47 -52.88 L 22.27 -52.88 Q 31.35 -52.88 35.85 -48.64 Q 40.35 -44.4 40.35 -37.05 L 40.35 -37.05 Q 40.35 -29.63 35.7 -25.46 Q 31.05 -21.3 22.27 -21.3 L 22.27 -21.3 Z M 21.68 -27 Q 27.9 -27 30.64 -29.63 Q 33.38 -32.25 33.38 -37.05 L 33.38 -37.05 Q 33.38 -42 30.64 -44.59 Q 27.9 -47.17 21.68 -47.17 L 21.68 -47.17 L 12.3 -47.17 L 12.3 -27 L 21.68 -27 Z M 99.07 0 L 91.35 0 L 77.55 -21.6 L 70.13 -21.6 L 70.13 0 L 63.3 0 L 63.3 -52.88 L 80.7 -52.88 Q 89.7 -52.88 94.2 -48.56 Q 98.7 -44.25 98.7 -37.13 L 98.7 -37.13 Q 98.7 -30.67 95.1 -26.74 Q 91.5 -22.8 84.67 -21.82 L 84.67 -21.82 L 99.07 0 Z M 70.13 -46.95 L 70.13 -26.55 L 80.1 -26.55 Q 91.72 -26.55 91.72 -36.75 L 91.72 -36.75 Q 91.72 -46.95 80.1 -46.95 L 80.1 -46.95 L 70.13 -46.95 Z M 146.25 -53.55 Q 153.6 -53.55 159.49 -50.1 Q 165.38 -46.65 168.75 -40.46 Q 172.13 -34.27 172.13 -26.47 L 172.13 -26.47 Q 172.13 -18.68 168.75 -12.49 Q 165.38 -6.3 159.49 -2.85 Q 153.6 0.6 146.25 0.6 L 146.25 0.6 Q 138.9 0.6 132.94 -2.85 Q 126.97 -6.3 123.6 -12.49 Q 120.22 -18.68 120.22 -26.47 L 120.22 -26.47 Q 120.22 -34.27 123.6 -40.46 Q 126.97 -46.65 132.94 -50.1 Q 138.9 -53.55 146.25 -53.55 L 146.25 -53.55 Z M 146.25 -47.17 Q 140.78 -47.17 136.46 -44.66 Q 132.15 -42.15 129.71 -37.46 Q 127.27 -32.77 127.27 -26.47 L 127.27 -26.47 Q 127.27 -20.25 129.71 -15.52 Q 132.15 -10.8 136.46 -8.29 Q 140.78 -5.77 146.25 -5.77 L 146.25 -5.77 Q 151.65 -5.77 155.96 -8.32 Q 160.28 -10.88 162.71 -15.56 Q 165.15 -20.25 165.15 -26.47 L 165.15 -26.47 Q 165.15 -32.77 162.71 -37.46 Q 160.28 -42.15 155.96 -44.66 Q 151.65 -47.17 146.25 -47.17 L 146.25 -47.17 Z M 240.9 -26.47 Q 240.9 -18.45 237.68 -12.49 Q 234.45 -6.52 228.19 -3.26 Q 221.93 0 213.15 0 L 213.15 0 L 196.35 0 L 196.35 -52.88 L 213.15 -52.88 Q 221.93 -52.88 228.19 -49.69 Q 234.45 -46.5 237.68 -40.54 Q 240.9 -34.57 240.9 -26.47 L 240.9 -26.47 Z M 212.63 -6.15 Q 222.97 -6.15 228.45 -11.47 Q 233.93 -16.8 233.93 -26.47 L 233.93 -26.47 Q 233.93 -36.15 228.49 -41.51 Q 223.05 -46.88 212.63 -46.88 L 212.63 -46.88 L 203.18 -46.88 L 203.18 -6.15 L 212.63 -6.15 Z M 264.75 -52.88 L 271.57 -52.88 L 271.57 -21.15 Q 271.57 -13.35 275.02 -9.64 Q 278.47 -5.92 284.55 -5.92 L 284.55 -5.92 Q 290.55 -5.92 293.92 -9.67 Q 297.3 -13.42 297.3 -21.15 L 297.3 -21.15 L 297.3 -52.88 L 304.13 -52.88 L 304.13 -21.15 Q 304.13 -10.35 298.76 -4.91 Q 293.4 0.53 284.4 0.53 L 284.4 0.53 Q 275.47 0.53 270.11 -4.91 Q 264.75 -10.35 264.75 -21.15 L 264.75 -21.15 L 264.75 -52.88 Z M 353.1 -53.4 Q 362.77 -53.4 369.07 -48.64 Q 375.37 -43.88 377.77 -35.63 L 377.77 -35.63 L 370.57 -35.63 Q 368.55 -40.88 364.05 -43.99 Q 359.55 -47.1 353.02 -47.1 L 353.02 -47.1 Q 347.85 -47.1 343.76 -44.59 Q 339.67 -42.07 337.31 -37.39 Q 334.95 -32.7 334.95 -26.4 L 334.95 -26.4 Q 334.95 -20.18 337.31 -15.52 Q 339.67 -10.88 343.76 -8.36 Q 347.85 -5.85 353.02 -5.85 L 353.02 -5.85 Q 359.55 -5.85 364.05 -8.96 Q 368.55 -12.07 370.57 -17.32 L 370.57 -17.32 L 377.77 -17.32 Q 375.37 -9.07 369.07 -4.31 Q 362.77 0.45 353.1 0.45 L 353.1 0.45 Q 345.67 0.45 339.97 -2.96 Q 334.27 -6.38 331.09 -12.49 Q 327.9 -18.6 327.9 -26.4 L 327.9 -26.4 Q 327.9 -34.27 331.09 -40.42 Q 334.27 -46.57 339.97 -49.99 Q 345.67 -53.4 353.1 -53.4 L 353.1 -53.4 Z M 397.65 -52.88 L 434.32 -52.88 L 434.32 -47.32 L 419.4 -47.32 L 419.4 0 L 412.57 0 L 412.57 -47.32 L 397.65 -47.32 L 397.65 -52.88 Z M 489.52 -13.72 Q 489.52 -9.97 487.72 -6.75 Q 485.92 -3.52 482.25 -1.5 Q 478.57 0.53 473.17 0.53 L 473.17 0.53 Q 467.92 0.53 463.84 -1.39 Q 459.75 -3.3 457.31 -6.64 Q 454.87 -9.97 454.5 -14.25 L 454.5 -14.25 L 461.77 -14.25 Q 462 -12 463.31 -9.86 Q 464.62 -7.72 467.06 -6.34 Q 469.5 -4.95 472.95 -4.95 L 472.95 -4.95 Q 477.45 -4.95 479.85 -7.35 Q 482.25 -9.75 482.25 -13.5 L 482.25 -13.5 Q 482.25 -16.72 480.56 -18.75 Q 478.87 -20.77 476.4 -21.94 Q 473.92 -23.1 469.65 -24.45 L 469.65 -24.45 Q 464.62 -26.1 461.59 -27.56 Q 458.55 -29.02 456.41 -31.95 Q 454.27 -34.88 454.27 -39.67 L 454.27 -39.67 Q 454.27 -43.8 456.26 -46.95 Q 458.25 -50.1 461.96 -51.82 Q 465.67 -53.55 470.7 -53.55 L 470.7 -53.55 Q 478.5 -53.55 483.07 -49.76 Q 487.65 -45.98 488.4 -40.13 L 488.4 -40.13 L 481.05 -40.13 Q 480.45 -43.27 477.82 -45.67 Q 475.2 -48.07 470.7 -48.07 L 470.7 -48.07 Q 466.57 -48.07 464.1 -45.94 Q 461.62 -43.8 461.62 -39.9 L 461.62 -39.9 Q 461.62 -36.82 463.24 -34.91 Q 464.85 -33 467.25 -31.91 Q 469.65 -30.82 473.85 -29.47 L 473.85 -29.47 Q 478.95 -27.82 482.06 -26.32 Q 485.17 -24.82 487.35 -21.79 Q 489.52 -18.75 489.52 -13.72 L 489.52 -13.72 Z" stroke-linecap="round" />
</g>
</g>
</g>
<g transform="matrix(1.9211538461538462 0 0 1.9211538461538462 647.1664291616586 454.71953201034614)" id="tagline-8919ada3-e78e-41fd-9409-f6b49134a301-logo"  >
<g style=""  paint-order="stroke"   >
		<g transform="matrix(1 0 0 1 0 0)" id="tagline-8919ada3-e78e-41fd-9409-f6b49134a301-logo-path-0"  >
<path style="stroke: none; stroke-width: 0; stroke-dasharray: none; stroke-linecap: butt; stroke-dashoffset: 0; stroke-linejoin: miter; stroke-miterlimit: 4; fill: rgb(0,0,0); fill-rule: nonzero; opacity: 1;"  paint-order="stroke"  transform=" translate(-72.905, 65.74000000000001)" d="M 9.93 -118.04 L 22.15 -118.04 L 22.15 -56.34 C 22.15 -19.42 44.38 1.76 72.51 1.76 C 101.34 1.76 124.01 -19.42 124.01 -57.92 L 124.01 -118.04 L 135.88 -118.04 L 135.88 -133.24 L 92.72 -133.24 L 92.72 -118.04 L 107.14 -118.04 L 107.14 -55.99 C 107.14 -24.35 93.08 -14.59 72.86 -14.59 C 53.53 -14.59 39.46 -26.19 39.46 -55.99 L 39.46 -118.04 L 53.09 -118.04 L 53.09 -133.24 L 9.93 -133.24 Z" stroke-linecap="round" />
</g>
</g>
</g>
<g transform="matrix(1 0 0 1 325 376.3118836464359)" id="tagline-856fc953-ad3d-4f4a-b95b-0be4e215395f-logo"  >
<g style=""  paint-order="stroke"   >
		<g transform="matrix(1 0 0 1 0 0)" id="tagline-856fc953-ad3d-4f4a-b95b-0be4e215395f-logo-path-0"  >
<path style="stroke: none; stroke-width: 0; stroke-dasharray: none; stroke-linecap: butt; stroke-dashoffset: 0; stroke-linejoin: miter; stroke-miterlimit: 4; fill: rgb(217,217,217); fill-rule: nonzero; opacity: 1;"  paint-order="stroke"  transform=" translate(0, 0)" d="" stroke-linecap="round" />
</g>
</g>
</g>
</svg>